<svg xmlns="http://www.w3.org/2000/svg" version="1.1" xmlns:xlink="http://www.w3.org/1999/xlink" xmlns:svgjs="http://svgjs.dev/svgjs" width="1000" height="227" viewBox="0 0 1000 227"><g transform="matrix(1,0,0,1,-0.6060606060606233,0.2576705474085941)"><svg viewBox="0 0 396 90" data-background-color="#ffffff" preserveAspectRatio="xMidYMid meet" height="227" width="1000" xmlns="http://www.w3.org/2000/svg" xmlns:xlink="http://www.w3.org/1999/xlink"><g id="tight-bounds" transform="matrix(1,0,0,1,0.2400000000000091,-0.10216012892851722)"><svg viewBox="0 0 395.52 90.204320257857" height="90.204320257857" width="395.52"><g><svg viewBox="0 0 538.2625578568229 122.75892028653455" height="90.204320257857" width="395.52"><g><rect width="5.222523226539514" height="106.5924054586407" x="123.84850785923753" y="8.083257413946924" fill="#ee3e38" opacity="1" stroke-width="0" stroke="transparent" fill-opacity="1" class="rect-r$-0" data-fill-palette-color="primary" rx="1%" id="r$-0" data-palette-color="#ee3e38"></rect></g><g transform="matrix(1,0,0,1,142.74255785682288,16.965957868833648)"><svg viewBox="0 0 395.52 88.82700454886725" height="88.82700454886725" width="395.52"><g id="textblocktransform"><svg viewBox="0 0 395.52 88.82700454886725" height="88.82700454886725" width="395.52" id="textblock"><g><svg viewBox="0 0 395.52 57.91154870061271" height="57.91154870061271" width="395.52"><g transform="matrix(1,0,0,1,0,0)"><svg width="395.52" viewBox="3.75 -34.65 236.63 34.65" height="57.91154870061271" data-palette-color="#ee3e38"><path d="M3.75-34.65L26.25-34.65 26.25-28.65 19.1-28.65 19.1-6.03 26.25-6.03 26.25 0 3.75 0 3.75-6.03 10.9-6.03 10.9-28.65 3.75-28.65 3.75-34.65ZM51.82 0L50-7.48 39.85-7.48 38.02 0 29.45 0 40.05-34.65 50-34.65 60.6 0 51.82 0ZM44.9-28.75L41.15-13.43 48.65-13.43 44.9-28.75ZM78.75-34.65L87.17-34.65 89.12 0 81.97 0 81.55-14.83Q81.5-16.9 81.51-18.53 81.52-20.15 81.57-21.59 81.62-23.03 81.73-24.49 81.84-25.95 81.97-27.68L81.97-27.68 78.07-5.9 71.87-5.9 67.67-27.68Q67.82-26.03 67.93-24.56 68.05-23.1 68.09-21.63 68.15-20.15 68.17-18.46 68.2-16.78 68.15-14.7L68.15-14.7 67.9 0 60.87 0 62.82-34.65 71.25-34.65 75.09-12.25 78.75-34.65ZM110.37-23.35L110.37-23.35Q110.37-25.2 109.68-26.41 108.99-27.63 107.61-28.21 106.22-28.8 104.12-28.8L104.12-28.8 101.32-28.8 101.32-17.48 104.54-17.48Q106.37-17.48 107.67-18.1 108.97-18.73 109.67-20.03 110.37-21.33 110.37-23.35ZM118.82-23.38L118.82-23.38Q118.82-19.35 117.09-16.73 115.37-14.1 112.27-12.81 109.17-11.53 105.07-11.53L105.07-11.53 101.32-11.53 101.32 0 93.12 0 93.12-34.65 104.02-34.65Q111.07-34.65 114.94-31.85 118.82-29.05 118.82-23.38ZM141.81 0L139.99-7.48 129.84-7.48 128.02 0 119.44 0 130.04-34.65 139.99-34.65 150.59 0 141.81 0ZM134.89-28.75L131.14-13.43 138.64-13.43 134.89-28.75ZM178.06-24.13L178.06-24.13Q178.06-21.65 177.14-19.8 176.21-17.95 174.64-16.68 173.06-15.4 171.11-14.63L171.11-14.63 180.19 0 170.91 0 163.41-13.25 161.09-13.25 161.09 0 152.89 0 152.89-34.65 163.79-34.65Q170.86-34.65 174.46-32.08 178.06-29.5 178.06-24.13ZM169.61-24.13L169.61-24.13Q169.61-26.63 168.15-27.76 166.69-28.9 163.81-28.9L163.81-28.9 161.09-28.9 161.09-18.88 164.14-18.88Q166.81-18.88 168.21-20.13 169.61-21.38 169.61-24.13ZM208.31-28.38L199.04-28.38 199.04 0 190.84 0 190.84-28.38 181.11-28.38 181.11-34.65 209.16-34.65 208.31-28.38ZM240.38-34.65L229.08-13 229.08 0 220.88 0 220.88-12.95 209.58-34.65 218.56-34.65 225.13-19.73 231.76-34.65 240.38-34.65Z" opacity="1" transform="matrix(1,0,0,1,0,0)" fill="#ee3e38" class="wordmark-text-0" data-fill-palette-color="primary" id="text-0"></path></svg></g></svg></g><g transform="matrix(1,0,0,1,0,71.58307547165856)"><svg viewBox="0 0 232.209792 17.24392907720869" height="17.24392907720869" width="232.209792"><g transform="matrix(1,0,0,1,0,0)"><svg width="232.209792" viewBox="3.05 -33.5 457.81 34" height="17.24392907720869" data-palette-color="#ee3e38"><path d="M27.15-10.45L32.25-8.75Q31.25-5.75 29.25-3.68 27.25-1.6 24.55-0.55 21.85 0.5 18.6 0.5L18.6 0.5Q13.85 0.5 10.35-1.55 6.85-3.6 4.95-7.4 3.05-11.2 3.05-16.5L3.05-16.5Q3.05-21.8 4.95-25.6 6.85-29.4 10.35-31.45 13.85-33.5 18.55-33.5L18.55-33.5Q21.8-33.5 24.43-32.6 27.05-31.7 28.9-29.9 30.75-28.1 31.75-25.4L31.75-25.4 26.7-23.15Q25.7-26.1 23.8-27.48 21.9-28.85 18.85-28.85L18.85-28.85Q15.8-28.85 13.5-27.4 11.2-25.95 9.93-23.2 8.65-20.45 8.65-16.5L8.65-16.5Q8.65-12.6 9.85-9.83 11.05-7.05 13.3-5.6 15.55-4.15 18.7-4.15L18.7-4.15Q21.75-4.15 23.98-5.73 26.2-7.3 27.15-10.45L27.15-10.45ZM39.1-33L52.55-33Q57.85-33 60.97-30.35 64.1-27.7 64.1-23.2L64.1-23.2Q64.1-18.55 60.97-16.03 57.85-13.5 52.55-13.5L52.55-13.5 52.05-13.2 44.4-13.2 44.4 0 39.1 0 39.1-33ZM44.4-17.65L52.15-17.65Q55.4-17.65 56.97-18.98 58.55-20.3 58.55-23.05L58.55-23.05Q58.55-25.75 56.97-27.1 55.4-28.45 52.15-28.45L52.15-28.45 44.4-28.45 44.4-17.65ZM50.7-14.45L55.3-16.55 66.05 0 59.9 0 50.7-14.45ZM98.65-33L106.45-33 106.45 0 101.5 0 101.5-19.1 101.9-28.2 101.85-28.2 91.8 0 87.35 0 77.3-28.2 77.25-28.2 77.65-19.1 77.65 0 72.7 0 72.7-33 80.65-33 87.3-13.9 89.6-6.05 89.7-6.05 92.05-13.9 98.65-33ZM115.69-15.65L132.74-15.65 132.74-10.7 115.69-10.7 115.69-15.65ZM143.59 0L138.09 0 150.54-33 156.94-33 169.39 0 163.74 0 155.24-23.6 153.74-28.35 153.59-28.35 152.19-23.7 143.59 0ZM162.59-8.65L144.74-8.65 144.74-13 162.59-13 162.59-8.65ZM175.24-33L187.94-33Q191.49-33 194.06-31.75 196.64-30.5 198.09-28.2 199.54-25.9 199.54-22.65L199.54-22.65Q199.54-19.45 198.09-17.13 196.64-14.8 194.06-13.55 191.49-12.3 187.94-12.3L187.94-12.3 180.59-12.3 180.59 0 175.24 0 175.24-33ZM180.59-16.9L187.09-16.9Q190.64-16.9 192.31-18.38 193.99-19.85 193.99-22.65L193.99-22.65Q193.99-25.5 192.31-26.98 190.64-28.45 187.09-28.45L187.09-28.45 180.59-28.45 180.59-16.9ZM206.59-33L219.29-33Q222.84-33 225.41-31.75 227.99-30.5 229.44-28.2 230.89-25.9 230.89-22.65L230.89-22.65Q230.89-19.45 229.44-17.13 227.99-14.8 225.41-13.55 222.84-12.3 219.29-12.3L219.29-12.3 211.94-12.3 211.94 0 206.59 0 206.59-33ZM211.94-16.9L218.44-16.9Q221.99-16.9 223.66-18.38 225.34-19.85 225.34-22.65L225.34-22.65Q225.34-25.5 223.66-26.98 221.99-28.45 218.44-28.45L218.44-28.45 211.94-28.45 211.94-16.9ZM243.28-33L243.28-4.6 261.48-4.6 261.48 0 237.93 0 237.93-33 243.28-33ZM267.88-33L273.23-33 273.23 0 267.88 0 267.88-33ZM305.28-10.45L310.38-8.75Q309.38-5.75 307.38-3.68 305.38-1.6 302.68-0.55 299.98 0.5 296.73 0.5L296.73 0.5Q291.98 0.5 288.48-1.55 284.98-3.6 283.08-7.4 281.18-11.2 281.18-16.5L281.18-16.5Q281.18-21.8 283.08-25.6 284.98-29.4 288.48-31.45 291.98-33.5 296.68-33.5L296.68-33.5Q299.93-33.5 302.55-32.6 305.18-31.7 307.03-29.9 308.88-28.1 309.88-25.4L309.88-25.4 304.83-23.15Q303.83-26.1 301.93-27.48 300.03-28.85 296.98-28.85L296.98-28.85Q293.93-28.85 291.63-27.4 289.33-25.95 288.05-23.2 286.78-20.45 286.78-16.5L286.78-16.5Q286.78-12.6 287.98-9.83 289.18-7.05 291.43-5.6 293.68-4.15 296.83-4.15L296.83-4.15Q299.88-4.15 302.1-5.73 304.33-7.3 305.28-10.45L305.28-10.45ZM318.82 0L313.32 0 325.77-33 332.18-33 344.63 0 338.97 0 330.47-23.6 328.97-28.35 328.82-28.35 327.43-23.7 318.82 0ZM337.82-8.65L319.97-8.65 319.97-13 337.82-13 337.82-8.65ZM347.07-33L375.02-33 375.02-28.4 363.72-28.4 363.72 0 358.37 0 358.37-28.4 347.07-28.4 347.07-33ZM381.42-33L386.77-33 386.77 0 381.42 0 381.42-33ZM410.27-33.5L410.27-33.5Q415.07-33.5 418.57-31.45 422.07-29.4 423.97-25.6 425.87-21.8 425.87-16.5L425.87-16.5Q425.87-11.2 423.97-7.4 422.07-3.6 418.57-1.55 415.07 0.5 410.27 0.5L410.27 0.5Q405.52 0.5 402.02-1.55 398.52-3.6 396.62-7.4 394.72-11.2 394.72-16.5L394.72-16.5Q394.72-21.8 396.62-25.6 398.52-29.4 402.02-31.45 405.52-33.5 410.27-33.5ZM410.27-28.85L410.27-28.85Q407.17-28.85 404.94-27.4 402.72-25.95 401.52-23.2 400.32-20.45 400.32-16.5L400.32-16.5Q400.32-12.6 401.52-9.83 402.72-7.05 404.94-5.6 407.17-4.15 410.27-4.15L410.27-4.15Q413.42-4.15 415.64-5.6 417.87-7.05 419.07-9.83 420.27-12.6 420.27-16.5L420.27-16.5Q420.27-20.45 419.07-23.2 417.87-25.95 415.64-27.4 413.42-28.85 410.27-28.85ZM455.91-33L460.86-33 460.86 0 454.51 0 441.76-20.8 438.56-26.65 438.51-26.65 438.71-21.3 438.71 0 433.81 0 433.81-33 440.11-33 452.81-12.25 456.06-6.3 456.11-6.3 455.91-11.7 455.91-33Z" opacity="1" transform="matrix(1,0,0,1,0,0)" fill="#ee3e38" class="slogan-text-1" data-fill-palette-color="secondary" id="text-1"></path></svg></g></svg></g></svg></g></svg></g><g><svg viewBox="0 0 110.17698108819168 122.75892028653455" height="122.75892028653455" width="110.17698108819168"><g><svg xmlns="http://www.w3.org/2000/svg" xmlns:xlink="http://www.w3.org/1999/xlink" version="1.1" x="0" y="0" viewBox="17.49999999999999 13.899999999999995 64.80000000000001 72.2" style="enable-background:new 0 0 100 100;" xml:space="preserve" height="122.75892028653455" width="110.17698108819168" class="icon-icon-0" data-fill-palette-color="accent" id="icon-0"><g fill="#ff5757" data-fill-palette-color="accent"><path d="M82.3 36.3c0-4.8-3.9-8.8-8.8-8.8-2.5 0-4.8 1.1-6.4 2.8l-8.8-5.1c0.2-0.8 0.4-1.7 0.4-2.5 0-4.8-3.9-8.8-8.8-8.8s-8.8 3.9-8.8 8.8c0 0.9 0.1 1.7 0.4 2.5l-8.8 5.1c-1.6-1.7-3.9-2.8-6.4-2.8-4.8 0-8.8 3.9-8.8 8.8 0 4.1 2.9 7.6 6.8 8.5v10.4c-3.9 0.9-6.8 4.4-6.8 8.5 0 4.8 3.9 8.8 8.8 8.8 2.5 0 4.8-1.1 6.4-2.8l8.8 5.1c-0.2 0.8-0.4 1.7-0.4 2.5 0 4.8 3.9 8.8 8.8 8.8s8.8-3.9 8.8-8.8c0-0.9-0.1-1.7-0.4-2.5l8.8-5.1c1.6 1.7 3.9 2.8 6.4 2.8 4.8 0 8.8-3.9 8.8-8.8 0-4.1-2.9-7.6-6.8-8.5V44.8C79.5 43.9 82.3 40.4 82.3 36.3zM50 18c2.6 0 4.8 2.1 4.8 4.8 0 2.6-2.1 4.8-4.8 4.8s-4.8-2.1-4.8-4.8C45.2 20.1 47.4 18 50 18zM21.7 36.3c0-2.6 2.1-4.8 4.8-4.8 2.6 0 4.8 2.1 4.8 4.8 0 2.6-2.1 4.8-4.8 4.8C23.8 41 21.7 38.9 21.7 36.3zM26.4 68.5c-2.6 0-4.8-2.1-4.8-4.8 0-2.6 2.1-4.8 4.8-4.8 2.6 0 4.8 2.1 4.8 4.8C31.2 66.4 29 68.5 26.4 68.5zM50 82c-2.6 0-4.8-2.1-4.8-4.8 0-2.6 2.1-4.8 4.8-4.8s4.8 2.1 4.8 4.8C54.8 79.9 52.6 82 50 82zM64.8 63.7c0 0.8 0.1 1.7 0.4 2.4l-8.8 5.1c-1.6-1.7-3.9-2.8-6.4-2.8s-4.8 1.1-6.4 2.8l-8.8-5.1c0.2-0.8 0.4-1.6 0.4-2.4 0-4.1-2.9-7.6-6.8-8.5V44.8c3.9-0.9 6.8-4.4 6.8-8.5 0-0.8-0.1-1.7-0.4-2.4l8.8-5.1c1.6 1.7 3.9 2.8 6.4 2.8 2.5 0 4.8-1.1 6.4-2.8l8.8 5.1c-0.2 0.8-0.4 1.6-0.4 2.4 0 4.1 2.9 7.6 6.8 8.5v10.4C67.7 56.1 64.8 59.6 64.8 63.7zM78.3 63.7c0 2.6-2.1 4.8-4.8 4.8-2.6 0-4.8-2.1-4.8-4.8 0-2.6 2.1-4.8 4.8-4.8C76.2 59 78.3 61.1 78.3 63.7zM73.6 41c-2.6 0-4.8-2.1-4.8-4.8 0-2.6 2.1-4.8 4.8-4.8 2.6 0 4.8 2.1 4.8 4.8C78.3 38.9 76.2 41 73.6 41z" fill="#ff5757" data-fill-palette-color="accent"></path></g></svg></g></svg></g></svg></g><defs></defs></svg><rect width="395.52" height="90.204320257857" fill="none" stroke="none" visibility="hidden"></rect></g></svg></g></svg>