<svg xmlns="http://www.w3.org/2000/svg" xmlns:xlink="http://www.w3.org/1999/xlink" viewBox="0 0 85.69486638372389 95.481" height="95.481" width="85.69486638372389" data-background-color="#ffffff" preserveAspectRatio="xMidYMid meet" id="tight-bounds"><g><svg viewBox="0 0 85.69486638372389 95.481" height="95.481" width="85.69486638372389"><g><svg viewBox="0 0 85.69486638372389 95.481" height="95.481" width="85.69486638372389"><g id="textblocktransform"><svg viewBox="0 0 85.69486638372389 95.481" height="95.481" width="85.69486638372389" id="textblock"><g><svg viewBox="0 0 85.69486638372389 95.481" height="95.481" width="85.69486638372389"><g><svg viewBox="0 0 85.69486638372389 95.481" height="95.481" width="85.69486638372389"><g><svg xmlns="http://www.w3.org/2000/svg" xmlns:xlink="http://www.w3.org/1999/xlink" version="1.1" x="0" y="0" viewBox="17.500003814697266 13.899998664855957 64.80000305175781 72.19999694824219" style="enable-background:new 0 0 100 100;" xml:space="preserve" height="95.481" width="85.69486638372389" class="icon-icon-0" data-fill-palette-color="accent" id="icon-0"><g fill="#ff5757" data-fill-palette-color="accent"><path d="M82.3 36.3c0-4.8-3.9-8.8-8.8-8.8-2.5 0-4.8 1.1-6.4 2.8l-8.8-5.1c0.2-0.8 0.4-1.7 0.4-2.5 0-4.8-3.9-8.8-8.8-8.8s-8.8 3.9-8.8 8.8c0 0.9 0.1 1.7 0.4 2.5l-8.8 5.1c-1.6-1.7-3.9-2.8-6.4-2.8-4.8 0-8.8 3.9-8.8 8.8 0 4.1 2.9 7.6 6.8 8.5v10.4c-3.9 0.9-6.8 4.4-6.8 8.5 0 4.8 3.9 8.8 8.8 8.8 2.5 0 4.8-1.1 6.4-2.8l8.8 5.1c-0.2 0.8-0.4 1.7-0.4 2.5 0 4.8 3.9 8.8 8.8 8.8s8.8-3.9 8.8-8.8c0-0.9-0.1-1.7-0.4-2.5l8.8-5.1c1.6 1.7 3.9 2.8 6.4 2.8 4.8 0 8.8-3.9 8.8-8.8 0-4.1-2.9-7.6-6.8-8.5V44.8C79.5 43.9 82.3 40.4 82.3 36.3zM50 18c2.6 0 4.8 2.1 4.8 4.8 0 2.6-2.1 4.8-4.8 4.8s-4.8-2.1-4.8-4.8C45.2 20.1 47.4 18 50 18zM21.7 36.3c0-2.6 2.1-4.8 4.8-4.8 2.6 0 4.8 2.1 4.8 4.8 0 2.6-2.1 4.8-4.8 4.8C23.8 41 21.7 38.9 21.7 36.3zM26.4 68.5c-2.6 0-4.8-2.1-4.8-4.8 0-2.6 2.1-4.8 4.8-4.8 2.6 0 4.8 2.1 4.8 4.8C31.2 66.4 29 68.5 26.4 68.5zM50 82c-2.6 0-4.8-2.1-4.8-4.8 0-2.6 2.1-4.8 4.8-4.8s4.8 2.1 4.8 4.8C54.8 79.9 52.6 82 50 82zM64.8 63.7c0 0.8 0.1 1.7 0.4 2.4l-8.8 5.1c-1.6-1.7-3.9-2.8-6.4-2.8s-4.8 1.1-6.4 2.8l-8.8-5.1c0.2-0.8 0.4-1.6 0.4-2.4 0-4.1-2.9-7.6-6.8-8.5V44.8c3.9-0.9 6.8-4.4 6.8-8.5 0-0.8-0.1-1.7-0.4-2.4l8.8-5.1c1.6 1.7 3.9 2.8 6.4 2.8 2.5 0 4.8-1.1 6.4-2.8l8.8 5.1c-0.2 0.8-0.4 1.6-0.4 2.4 0 4.1 2.9 7.6 6.8 8.5v10.4C67.7 56.1 64.8 59.6 64.8 63.7zM78.3 63.7c0 2.6-2.1 4.8-4.8 4.8-2.6 0-4.8-2.1-4.8-4.8 0-2.6 2.1-4.8 4.8-4.8C76.2 59 78.3 61.1 78.3 63.7zM73.6 41c-2.6 0-4.8-2.1-4.8-4.8 0-2.6 2.1-4.8 4.8-4.8 2.6 0 4.8 2.1 4.8 4.8C78.3 38.9 76.2 41 73.6 41z" fill="#ff5757" data-fill-palette-color="accent"/></g></svg></g></svg></g></svg></g></svg></g></svg></g></svg></g><defs/></svg>